<svg fill="none" xmlns="http://www.w3.org/2000/svg" viewBox="0 0 110 36">
  <g clip-path="url(#clip0_492_13905)" fill="#191919">
    <path d="M98.9706 23.6723c-3.046 0-5.198-2.3811-5.198-5.5062 0-3.1251 2.1535-5.5061 5.198-5.5061 3.0444 0 5.1374 2.381 5.1374 5.5061s-2.122 5.5062-5.1374 5.5062Zm-.4923 3.2784c2.4617 0 4.5527-.9582 5.8747-2.9687.246 1.9483 1.661 2.6605 3.445 2.6605h1.415v-3.0932h-.615c-1.015 0-1.261-.4951-1.261-1.64V9.6913h-3.26v2.5055c-1.107-1.7629-3.199-2.81528-5.5987-2.81528-4.2753 0-8.2139 3.58828-8.2139 8.78458 0 5.1964 3.9371 8.7846 8.2139 8.7846Zm-16.7947-4.2381c0 2.7834 1.7231 3.9284 3.783 3.9284h3.9687v-3.0933h-2.892c-1.199 0-1.4452-.4646-1.4452-1.64V12.783h4.3372V9.68978h-4.3372V3.99991h-3.4145V22.7126ZM66.1499 26.641h3.4145v-7.2692h1.1387l5.8142 7.2692h4.307l-7.4135-9.2174 5.6904-7.7323h-3.8449l-4.6453 6.5266h-1.0466V3.99991h-3.4145V26.641ZM55.0758 9.38152c-4.7677 0-8.7047 3.58828-8.7047 8.78458 0 5.1964 3.937 8.7846 8.7047 8.7846 4.7676 0 8.7046-3.5882 8.7046-8.7846 0-5.1963-3.937-8.78458-8.7046-8.78458Zm0 14.28918c-3.0461 0-5.1981-2.381-5.1981-5.5061s2.1535-5.5061 5.1981-5.5061c3.0445 0 5.198 2.381 5.198 5.5061s-2.1535 5.5061-5.198 5.5061Z"/>
    <path fill-rule="evenodd" clip-rule="evenodd" d="m19.8031.255641-.7382 9.118369c-.3494-.04236-.7033-.06505-1.0649-.06505-.4492 0-.8909.03328-1.3221.09984l-.4205-4.42153c-.0136-.13765.0968-.25867.236-.25716h.7548L16.8837.255641C16.8716.117988 16.9805 0 17.1181 0h2.4475c.1377 0 .2451.117988.2345.255641h.003Zm-6.1777.452288c-.0363-.133115-.1785-.205723-.3086-.15883l-2.3008.838021c-.1301.04689-.1906.19513-.1331.32068l1.8712 4.07967-.711.25715c-.1301.0469-.1936.19665-.1331.32371l1.906 4.01157c.6913-.38116 1.44-.66706 2.2312-.84858L13.6254.707929ZM7.97703 3.2477l5.29437 7.459c-.6716.4371-1.2782.9635-1.8046 1.5641L8.30074 9.15164c-.09983-.09832-.09227-.26017.01362-.34942l.57935-.48406-3.15242-3.19324c-.09681-.09832-.08924-.25715.01664-.3464l1.87421-1.57469c.10589-.08925.26472-.06807.34489.04387ZM3.53581 7.56637c-.11345-.07715-.26925-.04236-.33884.07563L1.97322 9.76276c-.06958.1195-.02118.27224.10286.33124l4.05549 1.9226-.37969.6535c-.06958.121-.02117.2753.10589.3328l4.04036 1.847c.29347-.7518.68377-1.4522 1.16177-2.0845L3.53581 7.56637ZM.548278 13.3296c.024203-.1361.157319-.2223.291947-.1875l8.849155 2.3113c-.22841.7473-.35699 1.5384-.37514 2.3568l-4.43063-.3555c-.13917-.0106-.23749-.1392-.21329-.2768l.13312-.7428-4.466936-.419c-.137654-.0136-.234465-.1406-.210262-.2768l.423549-2.4112-.001513.0015Zm-.334301 5.9766c-.1376537.0136-.234465.1407-.21026214.2768L.428777 21.9942c.024203.1361.158831.2224.291946.1876L5.0621 21.0473l.13009.7427c.02421.1376.16186.2239.29497.186l4.28239-1.1829c-.25262-.7427-.40842-1.5278-.44926-2.3446l-9.106313.8577Zm1.415863 6.3366c-.06958-.1195-.02118-.2723.10286-.3313l8.26224-3.9178c.31466.7412.73066 1.4294 1.22826 2.0466l-3.62131 2.5761c-.11345.0817-.27229.0454-.34036-.0741l-.37665-.655-3.69093 2.5519c-.11345.0786-.26926.0438-.33884-.0757l-1.22527-2.1207Zm10.01086-1.7184-6.42733 6.5105c-.09681.0983-.08925.2571.01664.3464l1.87572 1.5732c.10589.0892.26472.068.34489-.0439l2.59578-3.6607.5778.4871c.1059.0893.2678.0681.3464-.0469l2.5201-3.6561c-.6837-.4175-1.3054-.9273-1.85-1.5096Zm-1.2691 10.4525c-.1301-.0469-.1906-.1951-.1331-.3207l3.8119-8.3166c.7019.3585 1.4582.6262 2.2539.7835l-1.1179 4.299c-.0347.1347-.1785.2103-.3085.1619l-.7095-.2602-1.1889 4.3278c-.0364.1331-.1785.2057-.3086.1588l-2.3008-.8365.0015.003Zm6.565-7.7524-.7382 9.1199c-.0106.1376.0968.2556.2345.2556h2.4475c.1377 0 .2466-.118.2345-.2556l-.3646-4.473h.7548c.1392.0015.2481-.118.236-.2572l-.4205-4.4215c-.4311.0651-.8728.0999-1.3221.0999-.36 0-.714-.0243-1.0634-.0666l.0015-.0015Zm8.8265-24.68223c.0575-.12556-.0046-.27228-.1331-.32069L23.3292.785075c-.1286-.046893-.2723.025715-.3086.15883l-1.189 4.327745-.7094-.26018c-.1301-.0484-.2738.02723-.3086.16186l-1.1179 4.299c.7957.15732 1.552.42506 2.2539.78357l3.8135-8.31515v.00152Zm5.0236 3.62435-6.4274 6.51048c-.543-.5838-1.1647-1.0936-1.85-1.5111l2.5201-3.65613c.0787-.11345.2405-.13614.3464-.04538l.5779.48708 2.5957-3.66066c.0802-.11194.239-.13311.3449-.04387L30.77 5.22022c.1059.08925.1135.24959.0167.3464ZM34.2673 10.69c.1256-.059.1725-.2117.1029-.3312l-1.2253-2.12081c-.0695-.1195-.2254-.15429-.3388-.07563l-3.6909 2.55184-.3767-.655c-.0696-.12097-.2284-.15576-.3403-.07407l-3.6214 2.57607c.4977.6187.9137 1.3054 1.2283 2.0466l8.2622-3.9178Zm1.304 3.3188.425 2.4112c.0242.1377-.0741.2647-.2102.2768l-9.1063.8547c-.0409-.8168-.1967-1.6019-.4493-2.3446l4.2824-1.1814c.1331-.0379.2707.0499.2949.186l.1286.7427 4.3414-1.1345c.1331-.0348.2678.0515.292.1876l.0015.0015Zm-.4115 8.8506c.1331.0348.2678-.0514.292-.1875l.4235-2.4112c.0242-.1362-.0741-.2632-.2102-.2768l-4.467-.419.1331-.7428c.0242-.1376-.0741-.2647-.2133-.2768l-4.4306-.3555c-.0181.8199-.1467 1.6095-.3751 2.3583l8.8491 2.3098-.0015.0015Zm-2.3567 5.5016c-.0696.118-.2254.1528-.3389.0757l-7.527-5.1991c.478-.6323.8697-1.3326 1.1617-2.0844l4.0403 1.8484c.1271.0575.177.2133.1059.3328l-.3796.6535 4.0554 1.9226c.1241.059.1725.2118.1029.3313L32.8 28.3625l.0031-.0015Zm-10.0745-3.0662 5.2944 7.4605c.0802.112.2375.1331.3449.0439l1.8742-1.5747c.1059-.0892.1135-.2496.0166-.3464l-3.1524-3.1932.5794-.4841c.1059-.0892.1134-.2511.0136-.3479l-3.166-3.1191c-.5264.599-1.133 1.1254-1.8047 1.5626v-.0016Zm-.0453 10.1576c-.1286.0469-.2723-.0257-.3086-.1588l-2.4233-8.8219c.7911-.1815 1.5399-.4689 2.2312-.8486l1.9059 4.0116c.0605.1255-.0015.2768-.1331.3237l-.7109.2572 1.8711 4.0796c.0575.1256-.0045.2723-.1331.3207l-2.3007.838.0015-.0015Z"/>
  </g>
  <defs>
    <clipPath id="clip0_492_13905">
      <path fill="white" d="M0 0h110v36H0z"/>
    </clipPath>
  </defs>
</svg>
